<?xml version="1.0" encoding="UTF-8"?> <svg xmlns="http://www.w3.org/2000/svg" version="1.1" viewBox="0 0 2830.2 446.5"><defs><style> .cls-1 { fill: #eb6eb5; } </style></defs><g><g id="_图层_1" data-name="图层_1"><path class="cls-1" d="M16.3,203c34,19.5,123.8,13.8,162.8,6.6-22.4,15.4-42.7,27.1-55.6,50.8l2.1,7.3c12.5,1.6,25.1-4.8,34.9-11.6,15.8-11.2,29.7-28.9,41.8-43.4l108,.3c-24.3,13.1-69.1,33.1-75.8,60.2-.5,2-.3,4.3-.2,6.3,6.2,3.6,6.5,4.8,13.7,3.4,34.9-6.9,61.7-44.6,80.1-69.6l144.5.6c-50.5,23-143.7,55-163,106.8-4.8,13-2.3,23,4.1,34.8l8.7,4.8c21-5.3,36.7-29.7,46.9-46,12.2-20,24.2-40,35.9-60.2,39.9-15.5,78.3-28.8,121.5-34.6,77.4-10.4,161.5-4.4,239.9-4.5,153.2-.6,306.4-.3,459.6,1-14.6,27.5-21.7,50.4-10,80.2,6.6,16.9,19.1,31.4,37.6,38.4,21.2,8.1,47.7,5.7,68.6-2.4,17-6.6,31.3-19.6,37.4-35.6,5.4-14.2,6.3-33-.8-46.9-5.6-10.8-17.9-19.1-30.4-22.3-11.6-3-25.3-2.4-35.5,3.8-7.7,4.7-12.3,12-13.9,20.3-1.7,8.4,0,18,5.9,24.7,4.8,5.3,6.5,4.3,13.5,5.4,10.5-5.1,12.3-4.6,16.8-15.2l-8-16.8c6.5-3.6,13.8-3.6,21.3-1.3,6.1,1.9,11.1,6.1,13.4,11.4,4.4,10.4-.5,23.2-6.1,32.5-8.4,13.8-21.4,25.4-38.5,29.3-13.6,3.2-27.3,1.9-39.1-5.5-13.7-8.6-22.3-23.6-25-38.3-3.7-19.6,1.7-37.4,14.9-53,14.4-17.1,33.4-29,57.4-31.1,28.9-2.6,59.7,9.1,81.5,26,14.6,11.3,26,25.1,36.9,39.4-27.3,36.8-78.8,95.6-70.2,143.3,1.2,6.4,4.7,10.4,9.2,15.3,1.5.8,3.1,1.5,4.7,2.2,1.6.6,3.2,1.2,4.9,1.7,1.7.5,3.4.9,5.1,1.3s3.4.7,5.2.9c1.7.2,3.5.4,5.3.4,1.8.1,3.5,0,5.3,0,1.8-.1,3.5-.2,5.3-.5,1.7-.2,3.5-.5,5.2-.9,11-2.5,23.6-11.9,33.1-17.7,23.7,11.7,32,18.6,60,19.1,13.3-12.9,22-23.3,22-42,0-46.1-46-86-68.1-124.7,29.7-30.3,62.6-58.5,109.7-61,20.2-1.1,40.3,3.9,55.4,16.5,15.7,13.1,30.6,36.6,30.3,56.3,0,1.6,0,3.2-.3,4.9-.2,1.6-.5,3.2-.9,4.8-.4,1.6-.8,3.2-1.4,4.7-.5,1.5-1.2,3.1-1.9,4.6-.7,1.5-1.5,2.9-2.4,4.4-.9,1.4-1.8,2.8-2.9,4.1-1,1.3-2.1,2.6-3.3,3.9-1.2,1.2-2.4,2.4-3.7,3.5-1.5,1.3-3,2.5-4.7,3.6-1.6,1.1-3.3,2.2-5.1,3.2-1.8,1-3.6,1.9-5.4,2.7-1.9.8-3.7,1.5-5.7,2.1-1.9.6-3.9,1.2-5.9,1.6s-4,.8-6,1-4.1.4-6.1.4-4.1,0-6.1-.2c-15.8-1.3-29.2-6.8-41.1-16.3-5.7-11.1-9-17.9-3.5-30.3,4.2-9.4,10.3-15.5,18.7-21.8l8.6-1.4c.8,7.8,0,12.4-2.4,19.8,7.1,8.9,7.8,7.8,19.1,9.8,10.7-4.7,11.4-5.8,17.3-15.2.7-10-.5-16.6-7.7-24.7-7.6-8.5-18.9-11.8-30.6-12.4-11.9-.6-23.6,2.2-32.3,10-10.2,9.2-13.8,23.5-13.5,36.2,0,2.5.3,4.9.6,7.4.3,2.4.8,4.9,1.5,7.3.6,2.4,1.4,4.8,2.3,7.1.9,2.3,1.9,4.6,3.1,6.8,1.2,2.2,2.5,4.4,3.9,6.5s3,4.1,4.6,6.1c1.7,2,3.4,3.8,5.3,5.6,1.9,1.8,3.9,3.5,5.9,5,17.1,12.9,41.7,19.9,63.9,17,17.1-2.3,30-11.6,39.2-24.6,13.1-18.5,20.4-47.8,14.8-69.3-3-11.6-8.9-22.5-15.3-32.8l441.5-1c74.2-.1,155.7-6.5,228.6,3.9,42.3,6,92.3,18.4,123.1,47.1,32,29.8,36,73.4,76.7,97.8,7.7-1.4,9.6-1.1,14-7.6,6.3-9.4,4.3-23.1,1.1-33-15.4-48.6-95.3-82.6-140.2-104.7,42.1-.3,84.3-1.2,126.4-.4,29.4,26.4,74.3,94.5,115.3,97.9l6.3-4c.2-21.3-14.4-39.9-30.5-54.4-17.7-16-42-25-61.2-39.6l95.6.6c20.8,13.2,62.4,53.5,87.4,50.4l4.1-7.4c-7.5-18.3-31.5-31.9-47.9-44,38.1,3.1,92.8,14.5,126.8-3.9l1.2-5.6c-33.7-16.1-92.7-9.4-130.1-9.2,14.9-12.6,33.1-24.6,33.3-44.6,0-2.1-.1-3.4-.3-5.5l-5-3.4c-25.9,7.2-46.9,35.5-63.9,53.9l-91.8.2c28-22.1,54.4-42.4,56.2-78.7,1.1-22.5-10.1-44.1-27-60.1-19.4-18.5-47.3-30.4-75.6-30.2-19.5.1-38.4,6.3-51.5,19.8-11.9,12.3-19.2,32.4-17.1,48.8,2.4,19.3,16,33.7,31.7,45.7-29.6,21.1-58.7,42.9-96.6,49.9-38.4,7-82.3,3.3-121.4,3.2l-204.4-.3-268.5.9c-49.2.2-101.7,3.5-150.6-1.7-64-6.7-78.7-42.5-151.3,6.7-17,11.5-31.5,26-45.3,40.5-29.8-31.1-61.1-64.5-109.7-67.3-33.1-1.9-61.2,19-94.1,20.9-109.3,6.4-220.5-.4-330.1-.1-132.3.7-264.7.4-397-1-51.3-.4-109.6,5-160-1.5-21.6-2.8-44.1-9.5-60.2-23.4-17.2-14.8-24-35.8-23.8-56.9.2-19.3,6.5-36.6,22.2-50.2,14.7-12.7,35.8-19.2,55.9-18.7,18.1.5,37.5,6.8,49.4,19.7,8.9,9.7,11.5,21.3,9.4,33.6-1.7,10.3-5.9,18.8-15.3,25.1-11.4,7.8-25.4,7.7-39,5.5-3.5-.6-6.3-1.7-9.5-3l-2.8-6.9c8.4-14.6,27.6-26.5,30.7-41.7-8.4-4.7-17.6-6.6-27.5-4.2-9.5,2.3-16.5,9-19.7,17.3-4.5,11.5-1.1,26.1,5.2,36.6,6.4,10.6,16.6,19.4,29.7,22.5,15.8,3.7,31.9-1.7,45-9.7,12.9-8,23.7-19,26.1-33.4,3.3-19.1-8.1-38.1-21.1-52.4-17.6-19.5-37-25.5-63.3-30.4-35.4,7.1-61.4,16.8-81.7,45.5-1.7,2.4-3.3,4.9-4.7,7.4s-2.7,5.1-3.9,7.8c-1.1,2.7-2.2,5.4-3,8.1-.9,2.7-1.6,5.5-2.1,8.3-.6,2.8-1,5.6-1.2,8.5-.2,2.8-.3,5.7-.3,8.5.1,2.9.3,5.7.6,8.5.4,2.8.9,5.6,1.6,8.4,6.8,27.8,23.7,44,47.7,60.9l-84-.7c-21.4-20.1-56.7-63-87.4-68.3l-5.9,6.3c3.7,26.2,44.9,45.4,64.9,63.2-36.6-6.1-128-22.1-159-1.2-1.3.9-2.6,1.9-3.8,2.9l1.8,6.2ZM2532.3,107.8c2.3-13.4-1.8-24.2-10.5-34.8-11.5-5.5-13.6-5.8-26.6-5-4,13.1,13,28.2,11.8,44.4-6,10.5-7.3,10.9-19,16.2-5.3-4-10.4-8.1-14.7-13-9.9-11.3-12.6-21.2-9.8-35.4,2.2-11.1,7.5-21.1,18.3-27.2,13-7.2,29.3-7.1,43.7-4.3,2.9.6,5.7,1.3,8.5,2.1s5.5,1.8,8.2,2.9c2.7,1.1,5.3,2.3,7.8,3.6s5,2.8,7.4,4.3c2.4,1.6,4.7,3.2,6.8,5,2.2,1.8,4.3,3.6,6.2,5.6,2,2,3.8,4,5.6,6.2,1.7,2.2,3.3,4.4,4.8,6.7,9.1,14.1,12.9,30.5,7.7,46.4-9.9,30.5-46.6,51.6-75.7,65.6l-80.7.3c26.9-20.8,94.9-58.9,100.2-89.6ZM1404.7,406c-13.8-1.9-16.7-2-27.1-10.1-8.4-22.7,7.2-45,17.1-65.6l2.2-.7,6.3,2.7c2.8,6.9,5.5,13.8,7.5,20.9,6.2,21.9,7.1,32.9-6,52.8ZM1468.9,332.6l1.7-1.4,6.7.6c2.9,4.3,5.7,8.7,8,13.2,9.9,19.7,13.1,39.9,4.8,60.4-1.2-.1-2.3-.1-3.5-.2-14.3-1.6-20.6-4.7-29.6-14.2-3.8-17.2,7.2-41,11.9-58.4ZM1448.2,292.4c11.2,20-3.6,52.2-10.4,72.3-7.6-5.9-12.5-20-15.2-28.6-7.2-23.2-.7-39.7,11.9-59.5,5.8,3.9,10.4,9.9,13.7,15.8Z"></path></g></g></svg> 